<?xml version="1.0" encoding="utf-8"?>
<!-- Generator: Adobe Illustrator 22.1.0, SVG Export Plug-In . SVG Version: 6.00 Build 0)  -->
<svg version="1.1" id="Layer_1" xmlns="http://www.w3.org/2000/svg" xmlns:xlink="http://www.w3.org/1999/xlink" x="0px" y="0px"
	 viewBox="0 0 247 79" style="enable-background:new 0 0 247 79;" xml:space="preserve">
<g>
	<g>
		<path d="M0.1,1.1h36.7c5.1,0,9.3,0.7,12.5,2.1c3.2,1.4,5.7,3.1,7.4,5.1c1.8,2,3,4.2,3.6,6.6c0.6,2.4,0.9,4.5,0.9,6.4
			c0,2.4-0.4,4.5-1.2,6.4c-0.8,1.9-1.9,3.6-3.2,5c-1.3,1.5-2.7,2.6-4.2,3.5c-1.5,0.9-3,1.5-4.4,1.8c1.2,0.1,2.6,0.6,4.2,1.3
			c1.6,0.7,3,1.8,4.4,3.2c1.4,1.4,2.6,3.1,3.5,5.2c1,2.1,1.4,4.5,1.4,7.3c0,1.9-0.3,4.1-1,6.5c-0.6,2.4-1.8,4.7-3.6,6.8
			c-1.7,2.1-4.2,3.9-7.4,5.3c-3.2,1.4-7.4,2.1-12.5,2.1H0.1V1.1z M29.8,30.6c1.7,0,3.1-0.2,4.3-0.6c1.1-0.4,2.1-1,2.8-1.7
			c0.7-0.7,1.2-1.5,1.6-2.5c0.3-0.9,0.5-1.9,0.5-2.8c0-0.8-0.1-1.6-0.4-2.5c-0.3-0.9-0.7-1.7-1.3-2.4c-0.6-0.7-1.6-1.4-2.7-1.9
			c-1.2-0.5-2.7-0.7-4.7-0.7h-7.4v15.1H29.8z M22.4,45.1v15.3H30c3.4,0,5.7-0.8,7.1-2.4c1.4-1.6,2-3.4,2-5.3c0-0.7-0.1-1.5-0.4-2.4
			c-0.3-0.9-0.7-1.7-1.4-2.5c-0.7-0.8-1.6-1.4-2.8-1.9c-1.2-0.5-2.7-0.7-4.5-0.7H22.4z"/>
		<path d="M72.5,1.1h22.5V76H72.5V1.1z M163.3,48.9c0,5.2-0.7,9.6-2.1,13.3c-1.4,3.7-3.4,6.7-6,9c-2.6,2.3-5.8,4-9.5,5.1
			c-3.7,1.1-7.9,1.6-12.6,1.6c-5.2,0-9.7-0.7-13.5-2.2c-3.8-1.5-6.9-3.5-9.4-6.2c-2.5-2.6-4.4-5.7-5.6-9.2
			c-1.2-3.5-1.8-7.4-1.8-11.5H125c0,3,0.7,5.5,2,7.5c1.3,2,3.3,3,6,3c2.5,0,4.5-0.9,5.9-2.6c1.4-1.7,2.1-4.3,2.1-7.8V1.1h22.3V48.9z
			"/>
		<path d="M222.1,76l-2.6-8.7h-25.1l-2.6,8.7h-24.1l27.6-74.9h23.3L246.9,76H222.1z M207,23.6l-7.9,27.6H215L207,23.6z"/>
	</g>
</g>
</svg>
