<?xml version="1.0" encoding="utf-8"?>
<!-- Generator: Adobe Illustrator 22.1.0, SVG Export Plug-In . SVG Version: 6.00 Build 0)  -->
<svg version="1.1" id="Layer_1" xmlns="http://www.w3.org/2000/svg" xmlns:xlink="http://www.w3.org/1999/xlink" x="0px" y="0px"
	 viewBox="0 0 495 79" style="enable-background:new 0 0 495 79;" xml:space="preserve">
<g>
	<g>
		<path d="M0.2,2.1h35.9c4.3,0,8.1,0.7,11.6,2.2c3.5,1.5,6.4,3.5,8.9,6c2.5,2.5,4.3,5.5,5.7,8.9c1.3,3.4,2,7,2,10.8
			c0,3.8-0.7,7.3-2,10.7C61,44,59.1,47,56.7,49.5c-2.5,2.5-5.4,4.5-8.9,6c-3.5,1.5-7.3,2.2-11.6,2.2H22.5v19.1H0.2V2.1z M31.7,40.6
			c3,0,5.4-1,7.2-3.1c1.8-2.1,2.7-4.6,2.7-7.5c0-2.9-0.9-5.4-2.7-7.5c-1.8-2.1-4.2-3.1-7.2-3.1h-9.3v21.2H31.7z"/>
		<path d="M73.3,2.1h35.9c4.3,0,8.1,0.7,11.6,2.2c3.5,1.5,6.4,3.5,8.9,6c2.5,2.5,4.3,5.5,5.7,8.9c1.3,3.4,2,7,2,10.8
			c0,5.1-1.2,9.8-3.6,14.1c-2.4,4.3-5.8,7.6-10.1,10.1l15,22.8h-26.2L99.7,57.8h-4.2v19.1H73.3V2.1z M104.7,40.6c3,0,5.4-1,7.2-3.1
			c1.8-2.1,2.7-4.6,2.7-7.5c0-2.9-0.9-5.4-2.7-7.5c-1.8-2.1-4.2-3.1-7.2-3.1h-9.3v21.2H104.7z"/>
		<path d="M184.8,79c-6.4,0-12.1-1.1-17.2-3.3c-5-2.2-9.3-5.1-12.7-8.7c-3.5-3.6-6.1-7.8-7.9-12.6c-1.8-4.8-2.7-9.7-2.7-14.9
			s0.9-10.1,2.7-14.9c1.8-4.8,4.5-9,7.9-12.6c3.5-3.6,7.7-6.5,12.7-8.7c5-2.2,10.8-3.3,17.2-3.3s12.2,1.1,17.2,3.3
			c5.1,2.2,9.3,5.1,12.8,8.7s6.1,7.8,7.9,12.6c1.8,4.8,2.7,9.7,2.7,14.9s-0.9,10.1-2.7,14.9c-1.8,4.8-4.5,9-7.9,12.6
			c-3.5,3.6-7.7,6.5-12.8,8.7C196.9,77.9,191.2,79,184.8,79z M184.8,58.6c2.9,0,5.4-0.5,7.6-1.6c2.2-1.1,4.1-2.5,5.7-4.2
			c1.5-1.7,2.7-3.8,3.5-6.1c0.8-2.3,1.2-4.7,1.2-7.2c0-2.5-0.4-4.9-1.2-7.2c-0.8-2.3-2-4.3-3.5-6.1c-1.5-1.7-3.4-3.2-5.7-4.2
			c-2.2-1.1-4.8-1.6-7.6-1.6c-2.9,0-5.4,0.5-7.6,1.6c-2.2,1.1-4.1,2.5-5.7,4.2c-1.5,1.7-2.7,3.8-3.5,6.1c-0.8,2.3-1.2,4.7-1.2,7.2
			c0,2.5,0.4,4.9,1.2,7.2c0.8,2.3,2,4.4,3.5,6.1c1.5,1.7,3.4,3.2,5.7,4.2C179.4,58.1,181.9,58.6,184.8,58.6z"/>
		<path d="M290.1,49.8c0,5.2-0.7,9.6-2.1,13.3c-1.4,3.7-3.5,6.7-6.1,9c-2.6,2.3-5.8,4-9.6,5.1c-3.7,1.1-7.9,1.6-12.6,1.6
			c-5.2,0-9.7-0.7-13.5-2.2c-3.8-1.5-6.9-3.5-9.4-6.2c-2.5-2.6-4.4-5.7-5.6-9.2c-1.2-3.5-1.8-7.4-1.8-11.5h22.2c0,3,0.7,5.5,2,7.5
			c1.3,2,3.3,3,6,3c2.5,0,4.5-0.9,5.9-2.6c1.4-1.7,2.1-4.3,2.1-7.8V2.1h22.4V49.8z"/>
		<path d="M324.3,18.7v13.1h26v15.9h-26v12.5h26v16.7H302V2.1h48.2v16.7H324.3z"/>
		<path d="M439.1,47.4c-0.6,4.3-2,8.3-4,12.2c-2,3.9-4.7,7.2-8,10.1c-3.4,2.9-7.3,5.1-11.9,6.8c-4.6,1.7-9.7,2.5-15.5,2.5
			c-6.4,0-12.2-1.1-17.3-3.2c-5.1-2.1-9.4-5-12.9-8.7c-3.5-3.6-6.2-7.8-8-12.6c-1.9-4.8-2.8-9.8-2.8-15c0-5.2,0.9-10.2,2.7-14.9
			c1.8-4.7,4.5-8.9,8-12.6c3.5-3.6,7.7-6.5,12.7-8.7c5-2.2,10.6-3.3,17-3.3c6.1,0,11.4,0.9,16.2,2.6c4.7,1.7,8.7,4.1,12,7.1
			c3.3,3,6,6.5,7.9,10.5c2,4,3.2,8.2,3.7,12.7h-23.3c-0.6-3.6-2.3-6.6-4.9-9c-2.6-2.4-6.3-3.6-10.9-3.6c-3,0-5.6,0.5-7.9,1.6
			c-2.3,1.1-4.2,2.5-5.7,4.2c-1.5,1.7-2.6,3.8-3.4,6.1c-0.8,2.3-1.2,4.8-1.2,7.3c0,2.7,0.4,5.2,1.3,7.6c0.9,2.4,2.1,4.4,3.7,6.1
			c1.6,1.7,3.5,3.1,5.8,4.1c2.3,1,4.9,1.5,7.8,1.5c4.1,0,7.6-1.1,10.3-3.3c2.7-2.2,4.4-4.9,5.1-8H439.1z"/>
		<path d="M457.1,21.1h-15.4v-19h53.1v19h-15.4v55.8h-22.2V21.1z"/>
	</g>
</g>
</svg>
