<?xml version="1.0" encoding="utf-8"?>
<!-- Generator: Adobe Illustrator 16.0.0, SVG Export Plug-In . SVG Version: 6.00 Build 0)  -->
<!DOCTYPE svg PUBLIC "-//W3C//DTD SVG 1.1//EN" "http://www.w3.org/Graphics/SVG/1.1/DTD/svg11.dtd">
<svg version="1.1" id="Layer_1" xmlns="http://www.w3.org/2000/svg" xmlns:xlink="http://www.w3.org/1999/xlink" x="0px" y="0px"
	 width="100px" height="100px" viewBox="0 0 100 100" enable-background="new 0 0 100 100" xml:space="preserve">
<g>
	<path d="M90.787,71.875c0,10.586-8.577,19.163-19.152,19.163H28.371c-10.581,0-19.163-8.577-19.163-19.163V28.616
		c0-10.586,8.583-19.163,19.163-19.163h43.264c10.575,0,19.152,8.577,19.152,19.163V71.875z M71.139,0H28.862
		C12.924,0,0,12.918,0,28.862v42.271C0,87.076,12.924,100,28.862,100h42.277C87.076,100,100,87.076,100,71.133V28.862
		C100,12.918,87.076,0,71.139,0"/>
	<path d="M50,67.064c-9.292,0-16.819-7.527-16.819-16.813c0-9.291,7.528-16.825,16.819-16.825c9.286,0,16.819,7.534,16.819,16.825
		C66.819,59.537,59.286,67.064,50,67.064 M50,24.302c-14.331,0-25.949,11.613-25.949,25.949c0,14.325,11.618,25.938,25.949,25.938
		c14.33,0,25.948-11.612,25.948-25.938C75.948,35.915,64.33,24.302,50,24.302"/>
	<path d="M76.813,17.266c-3.343,0-6.049,2.712-6.049,6.049c0,3.337,2.706,6.043,6.049,6.043c3.337,0,6.044-2.707,6.044-6.043
		C82.857,19.978,80.15,17.266,76.813,17.266"/>
</g>
</svg>
